NotoSansSylotiNagri-Regular.ufo
<glyph name="uni0964" format="2">
  <advance width="379"/>
  <unicode hex="0964"/>
  <note>
uni0964
</note>
  <outline>
    <contour>
      <point x="275" y="0" type="line"/>
      <point x="275" y="622" type="line"/>
      <point x="194" y="622" type="line"/>
      <point x="194" y="0" type="line"/>
    </contour>
  </outline>
</glyph>
<glyph name="uni0965" format="2">
  <advance width="599"/>
  <unicode hex="0965"/>
  <note>
uni0965
</note>
  <outline>
    <contour>
      <point x="495" y="0" type="line"/>
      <point x="495" y="622" type="line"/>
      <point x="414" y="622" type="line"/>
      <point x="414" y="0" type="line"/>
    </contour>
    <contour>
      <point x="275" y="0" type="line"/>
      <point x="275" y="622" type="line"/>
      <point x="194" y="622" type="line"/>
      <point x="194" y="0" type="line"/>
    </contour>
  </outline>
</glyph>
<glyph name="uni09E6" format="2">
  <advance width="592"/>
  <unicode hex="09E6"/>
  <note>
uni09E6
</note>
  <outline>
    <contour>
      <point x="72" y="320" type="curve" smooth="yes"/>
      <point x="72" y="172"/>
      <point x="153" y="91"/>
      <point x="290" y="91" type="curve" smooth="yes"/>
      <point x="433" y="91"/>
      <point x="520" y="181"/>
      <point x="520" y="314" type="curve" smooth="yes"/>
      <point x="520" y="459"/>
      <point x="442" y="544"/>
      <point x="300" y="544" type="curve" smooth="yes"/>
      <point x="162" y="544"/>
      <point x="72" y="454"/>
    </contour>
    <contour>
      <point x="152" y="311" type="curve" smooth="yes"/>
      <point x="152" y="411"/>
      <point x="210" y="473"/>
      <point x="305" y="473" type="curve" smooth="yes"/>
      <point x="391" y="473"/>
      <point x="439" y="418"/>
      <point x="439" y="324" type="curve" smooth="yes"/>
      <point x="439" y="225"/>
      <point x="382" y="162"/>
      <point x="289" y="162" type="curve" smooth="yes"/>
      <point x="201" y="162"/>
      <point x="152" y="217"/>
    </contour>
  </outline>
</glyph>
<glyph name="uni09E7" format="2">
  <advance width="592"/>
  <unicode hex="09E7"/>
  <note>
uni09E7
</note>
  <outline>
    <contour>
      <point x="234" y="243" type="line"/>
      <point x="160" y="222"/>
      <point x="123" y="181"/>
      <point x="123" y="122" type="curve" smooth="yes"/>
      <point x="123" y="48"/>
      <point x="183" y="0"/>
      <point x="287" y="0" type="curve" smooth="yes"/>
      <point x="403" y="0"/>
      <point x="495" y="68"/>
      <point x="495" y="178" type="curve" smooth="yes"/>
      <point x="495" y="262"/>
      <point x="465" y="299"/>
      <point x="436" y="328" type="curve" smooth="yes"/>
      <point x="393" y="371"/>
      <point x="312" y="418"/>
      <point x="270" y="451" type="curve" smooth="yes"/>
      <point x="246" y="470"/>
      <point x="206" y="492"/>
      <point x="206" y="534" type="curve" smooth="yes"/>
      <point x="206" y="558"/>
      <point x="219" y="576"/>
      <point x="238" y="596" type="curve"/>
      <point x="174" y="631" type="line"/>
      <point x="142" y="600"/>
      <point x="122" y="561"/>
      <point x="122" y="529" type="curve" smooth="yes"/>
      <point x="122" y="490"/>
      <point x="138" y="461"/>
      <point x="184" y="421" type="curve" smooth="yes"/>
      <point x="207" y="401"/>
      <point x="302" y="334"/>
      <point x="342" y="302" type="curve" smooth="yes"/>
      <point x="387" y="266"/>
      <point x="415" y="238"/>
      <point x="415" y="181" type="curve" smooth="yes"/>
      <point x="415" y="118"/>
      <point x="364" y="75"/>
      <point x="286" y="75" type="curve" smooth="yes"/>
      <point x="235" y="75"/>
      <point x="205" y="92"/>
      <point x="205" y="120" type="curve" smooth="yes"/>
      <point x="205" y="145"/>
      <point x="222" y="157"/>
      <point x="263" y="167" type="curve"/>
    </contour>
  </outline>
</glyph>
<glyph name="uni09EB" format="2">
  <advance width="592"/>
  <unicode hex="09EB"/>
  <note>
uni09EB
</note>
  <outline>
    <contour>
      <point x="414" y="629" type="line"/>
      <point x="160" y="509"/>
      <point x="49" y="391"/>
      <point x="49" y="248" type="curve" smooth="yes"/>
      <point x="49" y="95"/>
      <point x="153" y="0"/>
      <point x="313" y="0" type="curve" smooth="yes"/>
      <point x="407" y="0"/>
      <point x="495" y="22"/>
      <point x="561" y="63" type="curve"/>
      <point x="528" y="146" type="line"/>
      <point x="521" y="145"/>
      <point x="509" y="144"/>
      <point x="492" y="144" type="curve" smooth="yes"/>
      <point x="426" y="144"/>
      <point x="392" y="172"/>
      <point x="392" y="221" type="curve" smooth="yes"/>
      <point x="392" y="281"/>
      <point x="439" y="331"/>
      <point x="566" y="400" type="curve"/>
      <point x="533" y="456" type="line"/>
      <point x="527" y="455"/>
      <point x="524" y="455"/>
      <point x="518" y="455" type="curve" smooth="yes"/>
      <point x="467" y="455"/>
      <point x="434" y="481"/>
      <point x="434" y="519" type="curve" smooth="yes"/>
      <point x="434" y="539"/>
      <point x="440" y="558"/>
      <point x="453" y="575" type="curve"/>
    </contour>
    <contour>
      <point x="368" y="525" type="curve"/>
      <point x="367" y="521"/>
      <point x="367" y="516"/>
      <point x="367" y="507" type="curve" smooth="yes"/>
      <point x="367" y="460"/>
      <point x="397" y="420"/>
      <point x="445" y="407" type="curve"/>
      <point x="355" y="344"/>
      <point x="316" y="289"/>
      <point x="316" y="222" type="curve" smooth="yes"/>
      <point x="316" y="147"/>
      <point x="365" y="101"/>
      <point x="455" y="89" type="curve"/>
      <point x="398" y="74"/>
      <point x="369" y="71"/>
      <point x="320" y="71" type="curve" smooth="yes"/>
      <point x="204" y="71"/>
      <point x="130" y="131"/>
      <point x="130" y="238" type="curve" smooth="yes"/>
      <point x="130" y="345"/>
      <point x="210" y="443"/>
    </contour>
  </outline>
</glyph>
<glyph name="uni09ED" format="2">
  <advance width="592"/>
  <unicode hex="09ED"/>
  <note>
uni09ED
</note>
  <outline>
    <contour>
      <point x="383" y="122" type="line" smooth="yes"/>
      <point x="383" y="28"/>
      <point x="427" y="2"/>
      <point x="520" y="0" type="curve"/>
      <point x="528" y="77" type="line"/>
      <point x="472" y="80"/>
      <point x="459" y="90"/>
      <point x="459" y="141" type="curve" smooth="yes"/>
      <point x="459" y="467" type="line" smooth="yes"/>
      <point x="459" y="576"/>
      <point x="396" y="622"/>
      <point x="296" y="622" type="curve" smooth="yes"/>
      <point x="182" y="622"/>
      <point x="70" y="529"/>
      <point x="70" y="411" type="curve" smooth="yes"/>
      <point x="70" y="306"/>
      <point x="141" y="248"/>
      <point x="268" y="248" type="curve" smooth="yes"/>
      <point x="306" y="248"/>
      <point x="344" y="253"/>
      <point x="383" y="266" type="curve"/>
    </contour>
    <contour>
      <point x="382" y="346" type="line"/>
      <point x="348" y="330"/>
      <point x="309" y="322"/>
      <point x="266" y="322" type="curve" smooth="yes"/>
      <point x="191" y="322"/>
      <point x="151" y="351"/>
      <point x="151" y="406" type="curve" smooth="yes"/>
      <point x="151" y="484"/>
      <point x="223" y="551"/>
      <point x="296" y="551" type="curve" smooth="yes"/>
      <point x="352" y="551"/>
      <point x="382" y="533"/>
      <point x="382" y="455" type="curve" smooth="yes"/>
    </contour>
  </outline>
</glyph>
<glyph name="uni09EF" format="2">
  <advance width="592"/>
  <unicode hex="09EF"/>
  <note>
uni09EF
</note>
  <outline>
    <contour>
      <point x="290" y="73" type="curve"/>
      <point x="321" y="105"/>
      <point x="333" y="137"/>
      <point x="333" y="181" type="curve" smooth="yes"/>
      <point x="333" y="259"/>
      <point x="266" y="315"/>
      <point x="174" y="315" type="curve" smooth="yes"/>
      <point x="81" y="315"/>
      <point x="27" y="273"/>
      <point x="27" y="207" type="curve" smooth="yes"/>
      <point x="27" y="185"/>
      <point x="33" y="161"/>
      <point x="44" y="135" type="curve"/>
      <point x="120" y="152" type="line"/>
      <point x="112" y="166"/>
      <point x="108" y="181"/>
      <point x="108" y="196" type="curve" smooth="yes"/>
      <point x="108" y="228"/>
      <point x="131" y="245"/>
      <point x="175" y="245" type="curve" smooth="yes"/>
      <point x="227" y="245"/>
      <point x="257" y="216"/>
      <point x="257" y="169" type="curve" smooth="yes"/>
      <point x="257" y="123"/>
      <point x="226" y="91"/>
      <point x="161" y="68" type="curve"/>
      <point x="183" y="0" type="line"/>
      <point x="197" y="0" type="line" smooth="yes"/>
      <point x="429" y="0"/>
      <point x="558" y="75"/>
      <point x="558" y="216" type="curve" smooth="yes"/>
      <point x="558" y="326"/>
      <point x="501" y="376"/>
      <point x="389" y="420" type="curve" smooth="yes"/>
      <point x="342" y="439"/>
      <point x="238" y="464"/>
      <point x="200" y="479" type="curve" smooth="yes"/>
      <point x="149" y="499"/>
      <point x="118" y="511"/>
      <point x="118" y="549" type="curve" smooth="yes"/>
      <point x="118" y="562"/>
      <point x="127" y="577"/>
      <point x="146" y="596" type="curve"/>
      <point x="83" y="631" type="line"/>
      <point x="51" y="602"/>
      <point x="35" y="570"/>
      <point x="35" y="536" type="curve" smooth="yes"/>
      <point x="35" y="474"/>
      <point x="75" y="439"/>
      <point x="188" y="401" type="curve" smooth="yes"/>
      <point x="240" y="384"/>
      <point x="359" y="352"/>
      <point x="395" y="331" type="curve" smooth="yes"/>
      <point x="448" y="300"/>
      <point x="476" y="277"/>
      <point x="476" y="214" type="curve" smooth="yes"/>
      <point x="476" y="138"/>
      <point x="412" y="89"/>
    </contour>
  </outline>
</glyph>
<glyph name="uni2010" format="2">
  <advance width="322"/>
  <unicode hex="2010"/>
  <note>
uni2010
</note>
  <outline>
    <contour>
      <point x="282" y="229" type="line"/>
      <point x="282" y="307" type="line"/>
      <point x="40" y="307" type="line"/>
      <point x="40" y="229" type="line"/>
    </contour>
  </outline>
</glyph>
<glyph name="uni2011" format="2">
  <advance width="322"/>
  <unicode hex="2011"/>
  <note>
uni2011
</note>
  <outline>
    <contour>
      <point x="282" y="229" type="line"/>
      <point x="282" y="307" type="line"/>
      <point x="40" y="307" type="line"/>
      <point x="40" y="229" type="line"/>
    </contour>
  </outline>
</glyph>
<glyph name="uni2055" format="2">
  <advance width="639"/>
  <unicode hex="2055"/>
  <outline>
    <contour>
      <point x="313" y="59" type="curve" smooth="yes"/>
      <point x="380" y="59"/>
      <point x="398" y="101"/>
      <point x="398" y="153" type="curve" smooth="yes"/>
      <point x="398" y="179"/>
      <point x="393" y="206"/>
      <point x="387" y="230" type="curve"/>
      <point x="420" y="202"/>
      <point x="475" y="167"/>
      <point x="518" y="167" type="curve" smooth="yes"/>
      <point x="566" y="167"/>
      <point x="596" y="221"/>
      <point x="596" y="263" type="curve" smooth="yes"/>
      <point x="596" y="301"/>
      <point x="568" y="324"/>
      <point x="531" y="338" type="curve" smooth="yes"/>
      <point x="511" y="346"/>
      <point x="487" y="350"/>
      <point x="465" y="353" type="curve"/>
      <point x="526" y="369"/>
      <point x="594" y="403"/>
      <point x="594" y="459" type="curve" smooth="yes"/>
      <point x="594" y="503"/>
      <point x="553" y="549"/>
      <point x="513" y="549" type="curve" smooth="yes"/>
      <point x="468" y="549"/>
      <point x="419" y="510"/>
      <point x="387" y="474" type="curve"/>
      <point x="393" y="497"/>
      <point x="398" y="525"/>
      <point x="398" y="550" type="curve" smooth="yes"/>
      <point x="398" y="603"/>
      <point x="380" y="645"/>
      <point x="313" y="645" type="curve" smooth="yes"/>
      <point x="248" y="645"/>
      <point x="229" y="603"/>
      <point x="229" y="549" type="curve" smooth="yes"/>
      <point x="229" y="524"/>
      <point x="234" y="497"/>
      <point x="240" y="474" type="curve"/>
      <point x="222" y="493"/>
      <point x="198" y="515"/>
      <point x="174" y="530" type="curve" smooth="yes"/>
      <point x="155" y="542"/>
      <point x="135" y="549"/>
      <point x="115" y="549" type="curve" smooth="yes"/>
      <point x="76" y="549"/>
      <point x="33" y="503"/>
      <point x="33" y="459" type="curve" smooth="yes"/>
      <point x="33" y="403"/>
      <point x="105" y="367"/>
      <point x="162" y="353" type="curve"/>
      <point x="98" y="346"/>
      <point x="31" y="321"/>
      <point x="31" y="262" type="curve" smooth="yes"/>
      <point x="31" y="212"/>
      <point x="69" y="167"/>
      <point x="109" y="167" type="curve" smooth="yes"/>
      <point x="126" y="167"/>
      <point x="140" y="172"/>
      <point x="157" y="179" type="curve" smooth="yes"/>
      <point x="188" y="191"/>
      <point x="217" y="212"/>
      <point x="240" y="229" type="curve"/>
      <point x="234" y="207"/>
      <point x="229" y="179"/>
      <point x="229" y="154" type="curve" smooth="yes"/>
      <point x="229" y="101"/>
      <point x="248" y="59"/>
    </contour>
    <contour>
      <point x="110" y="232" type="curve" smooth="yes"/>
      <point x="98" y="232"/>
      <point x="91" y="240"/>
      <point x="91" y="252" type="curve" smooth="yes"/>
      <point x="91" y="279"/>
      <point x="145" y="285"/>
      <point x="199" y="300" type="curve"/>
      <point x="202" y="291"/>
      <point x="206" y="284"/>
      <point x="212" y="276" type="curve"/>
      <point x="189" y="263"/>
      <point x="129" y="232"/>
    </contour>
    <contour>
      <point x="313" y="115" type="curve" smooth="yes"/>
      <point x="297" y="115"/>
      <point x="291" y="133"/>
      <point x="291" y="154" type="curve" smooth="yes"/>
      <point x="291" y="179"/>
      <point x="295" y="208"/>
      <point x="299" y="229" type="curve"/>
      <point x="303" y="229"/>
      <point x="308" y="228"/>
      <point x="312" y="228" type="curve" smooth="yes"/>
      <point x="317" y="228"/>
      <point x="322" y="228"/>
      <point x="327" y="229" type="curve"/>
      <point x="331" y="207"/>
      <point x="336" y="178"/>
      <point x="336" y="153" type="curve" smooth="yes"/>
      <point x="336" y="133"/>
      <point x="330" y="115"/>
    </contour>
    <contour>
      <point x="203" y="402" type="curve"/>
      <point x="155" y="421"/>
      <point x="94" y="442"/>
      <point x="94" y="467" type="curve" smooth="yes"/>
      <point x="94" y="478"/>
      <point x="103" y="485"/>
      <point x="113" y="485" type="curve" smooth="yes"/>
      <point x="142" y="485"/>
      <point x="192" y="438"/>
      <point x="214" y="417" type="curve"/>
      <point x="210" y="413"/>
      <point x="206" y="408"/>
    </contour>
    <contour>
      <point x="311" y="286" type="curve" smooth="yes"/>
      <point x="278" y="286"/>
      <point x="254" y="313"/>
      <point x="254" y="345" type="curve" smooth="yes"/>
      <point x="254" y="378"/>
      <point x="278" y="404"/>
      <point x="311" y="404" type="curve" smooth="yes"/>
      <point x="345" y="404"/>
      <point x="372" y="378"/>
      <point x="372" y="345" type="curve" smooth="yes"/>
      <point x="372" y="313"/>
      <point x="345" y="286"/>
    </contour>
    <contour>
      <point x="518" y="232" type="curve" smooth="yes"/>
      <point x="496" y="232"/>
      <point x="441" y="262"/>
      <point x="416" y="280" type="curve"/>
      <point x="422" y="286"/>
      <point x="426" y="292"/>
      <point x="429" y="299" type="curve"/>
      <point x="480" y="287"/>
      <point x="536" y="279"/>
      <point x="536" y="252" type="curve" smooth="yes"/>
      <point x="536" y="239"/>
      <point x="526" y="232"/>
    </contour>
    <contour>
      <point x="301" y="462" type="curve"/>
      <point x="297" y="485"/>
      <point x="291" y="520"/>
      <point x="291" y="549" type="curve" smooth="yes"/>
      <point x="291" y="571"/>
      <point x="297" y="589"/>
      <point x="313" y="589" type="curve" smooth="yes"/>
      <point x="330" y="589"/>
      <point x="336" y="571"/>
      <point x="336" y="550" type="curve" smooth="yes"/>
      <point x="336" y="520"/>
      <point x="329" y="485"/>
      <point x="324" y="462" type="curve"/>
      <point x="320" y="463"/>
      <point x="317" y="463"/>
      <point x="311" y="463" type="curve" smooth="yes"/>
      <point x="308" y="463"/>
      <point x="305" y="462"/>
    </contour>
    <contour>
      <point x="426" y="399" type="curve"/>
      <point x="422" y="407"/>
      <point x="416" y="415"/>
      <point x="410" y="421" type="curve"/>
      <point x="427" y="435"/>
      <point x="457" y="459"/>
      <point x="486" y="476" type="curve" smooth="yes"/>
      <point x="496" y="482"/>
      <point x="508" y="485"/>
      <point x="515" y="485" type="curve" smooth="yes"/>
      <point x="524" y="485"/>
      <point x="533" y="478"/>
      <point x="533" y="467" type="curve" smooth="yes"/>
      <point x="533" y="456"/>
      <point x="523" y="447"/>
      <point x="511" y="440" type="curve" smooth="yes"/>
      <point x="483" y="424"/>
      <point x="450" y="409"/>
    </contour>
  </outline>
</glyph>
<glyph name="uniA800" format="2">
  <advance width="808"/>
  <unicode hex="A800"/>
  <outline>
    <contour>
      <point x="668" y="0" type="line"/>
      <point x="743" y="0" type="line"/>
      <point x="743" y="611" type="line"/>
      <point x="816" y="611" type="line"/>
      <point x="816" y="679" type="line"/>
      <point x="-17" y="679" type="line"/>
      <point x="-17" y="611" type="line"/>
      <point x="662" y="611" type="line"/>
      <point x="304" y="186"/>
      <point x="227" y="81"/>
      <point x="164" y="81" type="curve" smooth="yes"/>
      <point x="137" y="81"/>
      <point x="124" y="97"/>
      <point x="108" y="139" type="curve"/>
      <point x="37" y="106" type="line"/>
      <point x="65" y="27"/>
      <point x="106" y="4"/>
      <point x="157" y="4" type="curve" smooth="yes"/>
      <point x="278" y="4"/>
      <point x="361" y="133"/>
      <point x="665" y="506" type="curve"/>
      <point x="668" y="505" type="line"/>
    </contour>
  </outline>
</glyph>
<glyph name="uniA801" format="2">
  <advance width="514"/>
  <unicode hex="A801"/>
  <outline>
    <contour>
      <point x="395" y="-14" type="curve"/>
      <point x="456" y="28" type="line"/>
      <point x="372" y="153"/>
      <point x="267" y="189"/>
      <point x="188" y="217" type="curve"/>
      <point x="189" y="221" type="line"/>
      <point x="325" y="221"/>
      <point x="443" y="290"/>
      <point x="443" y="410" type="curve" smooth="yes"/>
      <point x="443" y="485"/>
      <point x="393" y="533"/>
      <point x="326" y="533" type="curve" smooth="yes"/>
      <point x="291" y="533"/>
      <point x="254" y="528"/>
      <point x="200" y="483" type="curve"/>
      <point x="200" y="611" type="line"/>
      <point x="526" y="611" type="line"/>
      <point x="526" y="679" type="line"/>
      <point x="-17" y="679" type="line"/>
      <point x="-17" y="611" type="line"/>
      <point x="122" y="611" type="line"/>
      <point x="122" y="397" type="line"/>
      <point x="178" y="374" type="line"/>
      <point x="222" y="451"/>
      <point x="283" y="467"/>
      <point x="305" y="467" type="curve" smooth="yes"/>
      <point x="337" y="467"/>
      <point x="367" y="452"/>
      <point x="367" y="404" type="curve" smooth="yes"/>
      <point x="367" y="321"/>
      <point x="264" y="274"/>
      <point x="148" y="274" type="curve" smooth="yes"/>
      <point x="125" y="274"/>
      <point x="109" y="275"/>
      <point x="78" y="279" type="curve"/>
      <point x="67" y="205" type="line"/>
      <point x="147" y="182"/>
      <point x="287" y="144"/>
    </contour>
  </outline>
</glyph>
<glyph name="uniA802" format="2">
  <unicode hex="A802"/>
  <outline>
    <contour>
      <point x="-279" y="726" type="line"/>
      <point x="-235" y="769" type="line"/>
      <point x="-397" y="947" type="line"/>
      <point x="-451" y="898" type="line"/>
    </contour>
    <contour>
      <point x="-176" y="734" type="line"/>
      <point x="-124" y="767" type="line"/>
      <point x="-248" y="975" type="line"/>
      <point x="-311" y="935" type="line"/>
    </contour>
  </outline>
</glyph>
<glyph name="uniA803" format="2">
  <advance width="726"/>
  <unicode hex="A803"/>
  <outline>
    <contour>
      <point x="380" y="0" type="curve" smooth="yes"/>
      <point x="503" y="0"/>
      <point x="666" y="49"/>
      <point x="666" y="199" type="curve" smooth="yes"/>
      <point x="666" y="292"/>
      <point x="612" y="347"/>
      <point x="527" y="347" type="curve"/>
      <point x="560" y="368"/>
      <point x="577" y="402"/>
      <point x="577" y="435" type="curve" smooth="yes"/>
      <point x="577" y="530"/>
      <point x="499" y="560"/>
      <point x="446" y="560" type="curve" smooth="yes"/>
      <point x="380" y="560"/>
      <point x="298" y="518"/>
      <point x="298" y="435" type="curve" smooth="yes"/>
      <point x="298" y="422"/>
      <point x="300" y="409"/>
      <point x="304" y="395" type="curve"/>
      <point x="380" y="412" type="line"/>
      <point x="378" y="420"/>
      <point x="377" y="428"/>
      <point x="377" y="435" type="curve" smooth="yes"/>
      <point x="377" y="476"/>
      <point x="414" y="493"/>
      <point x="441" y="493" type="curve" smooth="yes"/>
      <point x="473" y="493"/>
      <point x="502" y="475"/>
      <point x="502" y="433" type="curve" smooth="yes"/>
      <point x="502" y="391"/>
      <point x="474" y="370"/>
      <point x="395" y="349" type="curve"/>
      <point x="417" y="278" type="line"/>
      <point x="441" y="287"/>
      <point x="475" y="295"/>
      <point x="500" y="295" type="curve" smooth="yes"/>
      <point x="548" y="295"/>
      <point x="589" y="265"/>
      <point x="589" y="200" type="curve" smooth="yes"/>
      <point x="589" y="103"/>
      <point x="469" y="74"/>
      <point x="379" y="74" type="curve" smooth="yes"/>
      <point x="245" y="74"/>
      <point x="131" y="153"/>
      <point x="131" y="314" type="curve" smooth="yes"/>
      <point x="131" y="475"/>
      <point x="249" y="574"/>
      <point x="301" y="615" type="curve"/>
      <point x="246" y="659" type="line"/>
      <point x="187" y="611"/>
      <point x="53" y="495"/>
      <point x="53" y="314" type="curve" smooth="yes"/>
      <point x="53" y="94"/>
      <point x="230" y="0"/>
    </contour>
    <contour>
      <point x="-7" y="611" type="line"/>
      <point x="737" y="611" type="line"/>
      <point x="737" y="679" type="line"/>
      <point x="-7" y="679" type="line"/>
    </contour>
  </outline>
</glyph>
<glyph name="uniA805" format="2">
  <advance width="597"/>
  <unicode hex="A805"/>
  <outline>
    <contour>
      <point x="438" y="0" type="line"/>
      <point x="514" y="0" type="line"/>
      <point x="514" y="611" type="line"/>
      <point x="610" y="611" type="line"/>
      <point x="610" y="679" type="line"/>
      <point x="-17" y="679" type="line"/>
      <point x="-17" y="611" type="line"/>
      <point x="438" y="611" type="line"/>
      <point x="438" y="482" type="line"/>
      <point x="396" y="510"/>
      <point x="345" y="530"/>
      <point x="281" y="530" type="curve" smooth="yes"/>
      <point x="142" y="530"/>
      <point x="59" y="460"/>
      <point x="59" y="333" type="curve" smooth="yes"/>
      <point x="59" y="203"/>
      <point x="137" y="136"/>
      <point x="283" y="136" type="curve" smooth="yes"/>
      <point x="348" y="136"/>
      <point x="401" y="158"/>
      <point x="438" y="185" type="curve"/>
    </contour>
    <contour>
      <point x="135" y="-9" type="curve" smooth="yes"/>
      <point x="171" y="-9"/>
      <point x="194" y="12"/>
      <point x="194" y="49" type="curve" smooth="yes"/>
      <point x="194" y="85"/>
      <point x="171" y="105"/>
      <point x="135" y="105" type="curve" smooth="yes"/>
      <point x="98" y="105"/>
      <point x="76" y="85"/>
      <point x="76" y="49" type="curve" smooth="yes"/>
      <point x="76" y="12"/>
      <point x="98" y="-9"/>
    </contour>
    <contour>
      <point x="285" y="208" type="curve" smooth="yes"/>
      <point x="191" y="208"/>
      <point x="141" y="249"/>
      <point x="141" y="333" type="curve" smooth="yes"/>
      <point x="141" y="416"/>
      <point x="192" y="459"/>
      <point x="291" y="459" type="curve" smooth="yes"/>
      <point x="355" y="459"/>
      <point x="404" y="435"/>
      <point x="438" y="411" type="curve"/>
      <point x="438" y="269" type="line"/>
      <point x="396" y="232"/>
      <point x="350" y="208"/>
    </contour>
  </outline>
</glyph>
<glyph name="uniA807" format="2">
  <advance width="896"/>
  <unicode hex="A807"/>
  <outline>
    <contour>
      <point x="751" y="0" type="line"/>
      <point x="827" y="0" type="line"/>
      <point x="827" y="611" type="line"/>
      <point x="902" y="611" type="line"/>
      <point x="902" y="679" type="line"/>
      <point x="-17" y="679" type="line"/>
      <point x="-17" y="611" type="line"/>
      <point x="87" y="611" type="line"/>
      <point x="87" y="95" type="line"/>
      <point x="159" y="62" type="line"/>
      <point x="391" y="331"/>
      <point x="596" y="456"/>
      <point x="748" y="523" type="curve"/>
      <point x="751" y="522" type="line"/>
    </contour>
    <contour>
      <point x="405" y="0" type="line"/>
      <point x="480" y="0" type="line"/>
      <point x="480" y="621" type="line"/>
      <point x="405" y="621" type="line"/>
    </contour>
    <contour>
      <point x="168" y="189" type="curve"/>
      <point x="164" y="190" type="line"/>
      <point x="164" y="611" type="line"/>
      <point x="753" y="611" type="line"/>
      <point x="577" y="527"/>
      <point x="366" y="403"/>
    </contour>
  </outline>
</glyph>
<glyph name="uniA808" format="2">
  <advance width="962"/>
  <unicode hex="A808"/>
  <outline>
    <contour>
      <point x="810" y="0" type="line"/>
      <point x="886" y="0" type="line"/>
      <point x="886" y="611" type="line"/>
      <point x="971" y="611" type="line"/>
      <point x="971" y="679" type="line"/>
      <point x="-17" y="679" type="line"/>
      <point x="-17" y="611" type="line"/>
      <point x="68" y="611" type="line"/>
      <point x="68" y="236" type="line"/>
      <point x="147" y="204" type="line"/>
      <point x="224" y="327"/>
      <point x="318" y="446"/>
      <point x="427" y="545" type="curve"/>
      <point x="430" y="544" type="line"/>
      <point x="430" y="236" type="line"/>
      <point x="510" y="204" type="line"/>
      <point x="591" y="334"/>
      <point x="691" y="458"/>
      <point x="807" y="560" type="curve"/>
      <point x="810" y="558" type="line"/>
    </contour>
    <contour>
      <point x="148" y="340" type="curve"/>
      <point x="144" y="341" type="line"/>
      <point x="144" y="611" type="line"/>
      <point x="400" y="611" type="line"/>
      <point x="299" y="526"/>
      <point x="225" y="447"/>
    </contour>
    <contour>
      <point x="511" y="340" type="curve"/>
      <point x="507" y="341" type="line"/>
      <point x="507" y="611" type="line"/>
      <point x="762" y="611" type="line"/>
      <point x="661" y="526"/>
      <point x="588" y="447"/>
    </contour>
  </outline>
</glyph>
<glyph name="uniA809" format="2">
  <advance width="660"/>
  <unicode hex="A809"/>
  <outline>
    <contour>
      <point x="503" y="0" type="line"/>
      <point x="579" y="0" type="line"/>
      <point x="579" y="611" type="line"/>
      <point x="673" y="611" type="line"/>
      <point x="673" y="679" type="line"/>
      <point x="-17" y="679" type="line"/>
      <point x="-17" y="611" type="line"/>
      <point x="162" y="611" type="line"/>
      <point x="197" y="577"/>
      <point x="237" y="523"/>
      <point x="269" y="464" type="curve"/>
      <point x="110" y="423"/>
      <point x="56" y="358"/>
      <point x="56" y="288" type="curve" smooth="yes"/>
      <point x="56" y="188"/>
      <point x="129" y="128"/>
      <point x="214" y="128" type="curve" smooth="yes"/>
      <point x="303" y="128"/>
      <point x="381" y="192"/>
      <point x="381" y="316" type="curve" smooth="yes"/>
      <point x="381" y="431"/>
      <point x="312" y="537"/>
      <point x="252" y="611" type="curve"/>
      <point x="503" y="611" type="line"/>
    </contour>
    <contour>
      <point x="207" y="196" type="curve" smooth="yes"/>
      <point x="167" y="196"/>
      <point x="134" y="225"/>
      <point x="134" y="276" type="curve" smooth="yes"/>
      <point x="134" y="319"/>
      <point x="165" y="370"/>
      <point x="293" y="398" type="curve"/>
      <point x="300" y="370"/>
      <point x="304" y="342"/>
      <point x="304" y="314" type="curve" smooth="yes"/>
      <point x="304" y="232"/>
      <point x="248" y="196"/>
    </contour>
  </outline>
</glyph>
<glyph name="uniA80B" format="2">
  <unicode hex="A80B"/>
  <outline>
    <contour>
      <point x="-154" y="747" type="curve" smooth="yes"/>
      <point x="-91" y="747"/>
      <point x="-37" y="792"/>
      <point x="-37" y="855" type="curve" smooth="yes"/>
      <point x="-37" y="919"/>
      <point x="-91" y="963"/>
      <point x="-154" y="963" type="curve" smooth="yes"/>
      <point x="-216" y="963"/>
      <point x="-269" y="919"/>
      <point x="-269" y="855" type="curve" smooth="yes"/>
      <point x="-269" y="792"/>
      <point x="-216" y="747"/>
    </contour>
    <contour>
      <point x="-155" y="808" type="curve" smooth="yes"/>
      <point x="-182" y="808"/>
      <point x="-204" y="829"/>
      <point x="-204" y="855" type="curve" smooth="yes"/>
      <point x="-204" y="881"/>
      <point x="-182" y="902"/>
      <point x="-155" y="902" type="curve" smooth="yes"/>
      <point x="-125" y="902"/>
      <point x="-104" y="881"/>
      <point x="-104" y="855" type="curve" smooth="yes"/>
      <point x="-104" y="829"/>
      <point x="-125" y="808"/>
    </contour>
  </outline>
</glyph>
<glyph name="uniA80E" format="2">
  <advance width="749"/>
  <unicode hex="A80E"/>
  <outline>
    <contour>
      <point x="596" y="0" type="line"/>
      <point x="672" y="0" type="line"/>
      <point x="672" y="611" type="line"/>
      <point x="760" y="611" type="line"/>
      <point x="760" y="679" type="line"/>
      <point x="-13" y="679" type="line"/>
      <point x="-13" y="611" type="line"/>
      <point x="165" y="611" type="line"/>
      <point x="103" y="541"/>
      <point x="42" y="448"/>
      <point x="42" y="331" type="curve" smooth="yes"/>
      <point x="42" y="136"/>
      <point x="177" y="81"/>
      <point x="268" y="81" type="curve" smooth="yes"/>
      <point x="375" y="81"/>
      <point x="472" y="133"/>
      <point x="472" y="255" type="curve" smooth="yes"/>
      <point x="472" y="298"/>
      <point x="454" y="338"/>
      <point x="424" y="358" type="curve"/>
      <point x="425" y="361" type="line"/>
      <point x="596" y="380" type="line"/>
    </contour>
    <contour>
      <point x="273" y="147" type="curve" smooth="yes"/>
      <point x="205" y="147"/>
      <point x="117" y="185"/>
      <point x="117" y="331" type="curve" smooth="yes"/>
      <point x="117" y="453"/>
      <point x="190" y="540"/>
      <point x="260" y="611" type="curve"/>
      <point x="596" y="611" type="line"/>
      <point x="596" y="450" type="line"/>
      <point x="304" y="417" type="line"/>
      <point x="300" y="348" type="line"/>
      <point x="347" y="347"/>
      <point x="395" y="331"/>
      <point x="395" y="256" type="curve" smooth="yes"/>
      <point x="395" y="186"/>
      <point x="341" y="147"/>
    </contour>
  </outline>
</glyph>
<glyph name="uniA80F" format="2">
  <advance width="937"/>
  <unicode hex="A80F"/>
  <outline>
    <contour>
      <point x="407" y="63" type="line"/>
      <point x="596" y="69"/>
      <point x="729" y="202"/>
      <point x="729" y="348" type="curve" smooth="yes"/>
      <point x="729" y="410"/>
      <point x="712" y="470"/>
      <point x="662" y="518" type="curve"/>
      <point x="612" y="469" type="line"/>
      <point x="643" y="435"/>
      <point x="654" y="395"/>
      <point x="654" y="352" type="curve" smooth="yes"/>
      <point x="654" y="261"/>
      <point x="598" y="173"/>
      <point x="484" y="143" type="curve"/>
      <point x="481" y="145" type="line"/>
      <point x="481" y="487" type="line"/>
      <point x="397" y="520" type="line"/>
      <point x="282" y="421"/>
      <point x="238" y="370"/>
      <point x="168" y="264" type="curve"/>
      <point x="164" y="265" type="line"/>
      <point x="164" y="611" type="line"/>
      <point x="943" y="611" type="line"/>
      <point x="943" y="679" type="line"/>
      <point x="-17" y="679" type="line"/>
      <point x="-17" y="611" type="line"/>
      <point x="87" y="611" type="line"/>
      <point x="87" y="156" type="line"/>
      <point x="167" y="126" type="line"/>
      <point x="266" y="300"/>
      <point x="351" y="391"/>
      <point x="404" y="435" type="curve"/>
      <point x="407" y="434" type="line"/>
    </contour>
    <contour>
      <point x="676" y="31" type="line"/>
      <point x="817" y="99"/>
      <point x="881" y="217"/>
      <point x="881" y="332" type="curve" smooth="yes"/>
      <point x="881" y="394"/>
      <point x="863" y="464"/>
      <point x="818" y="522" type="curve"/>
      <point x="764" y="481" type="line"/>
      <point x="795" y="434"/>
      <point x="809" y="385"/>
      <point x="809" y="335" type="curve" smooth="yes"/>
      <point x="809" y="242"/>
      <point x="757" y="146"/>
      <point x="643" y="88" type="curve"/>
    </contour>
  </outline>
</glyph>
<glyph name="uniA810" format="2">
  <advance width="543"/>
  <unicode hex="A810"/>
  <outline>
    <contour>
      <point x="259" y="-6" type="curve" smooth="yes"/>
      <point x="382" y="-6"/>
      <point x="451" y="58"/>
      <point x="451" y="158" type="curve" smooth="yes"/>
      <point x="451" y="176"/>
      <point x="450" y="193"/>
      <point x="447" y="212" type="curve"/>
      <point x="369" y="201" type="line"/>
      <point x="372" y="188"/>
      <point x="373" y="175"/>
      <point x="373" y="163" type="curve" smooth="yes"/>
      <point x="373" y="83"/>
      <point x="303" y="61"/>
      <point x="259" y="61" type="curve" smooth="yes"/>
      <point x="184" y="61"/>
      <point x="146" y="103"/>
      <point x="146" y="165" type="curve" smooth="yes"/>
      <point x="146" y="224"/>
      <point x="183" y="256"/>
      <point x="289" y="303" type="curve" smooth="yes"/>
      <point x="384" y="345"/>
      <point x="449" y="402"/>
      <point x="449" y="495" type="curve" smooth="yes"/>
      <point x="449" y="540"/>
      <point x="433" y="582"/>
      <point x="401" y="611" type="curve"/>
      <point x="557" y="611" type="line"/>
      <point x="557" y="679" type="line"/>
      <point x="-17" y="679" type="line"/>
      <point x="-17" y="611" type="line"/>
      <point x="137" y="611" type="line"/>
      <point x="101" y="580"/>
      <point x="83" y="536"/>
      <point x="83" y="494" type="curve" smooth="yes"/>
      <point x="83" y="469"/>
      <point x="88" y="445"/>
      <point x="96" y="424" type="curve"/>
      <point x="169" y="446" type="line"/>
      <point x="163" y="464"/>
      <point x="160" y="480"/>
      <point x="160" y="496" type="curve" smooth="yes"/>
      <point x="160" y="555"/>
      <point x="202" y="602"/>
      <point x="273" y="602" type="curve" smooth="yes"/>
      <point x="337" y="602"/>
      <point x="376" y="561"/>
      <point x="376" y="501" type="curve" smooth="yes"/>
      <point x="376" y="439"/>
      <point x="322" y="395"/>
      <point x="251" y="362" type="curve" smooth="yes"/>
      <point x="139" y="310"/>
      <point x="68" y="261"/>
      <point x="68" y="167" type="curve" smooth="yes"/>
      <point x="68" y="79"/>
      <point x="129" y="-6"/>
    </contour>
  </outline>
</glyph>
<glyph name="uniA811" format="2">
  <advance width="526"/>
  <unicode hex="A811"/>
  <outline>
    <contour>
      <point x="76" y="-5" type="line"/>
      <point x="309" y="0"/>
      <point x="473" y="169"/>
      <point x="473" y="316" type="curve" smooth="yes"/>
      <point x="473" y="415"/>
      <point x="412" y="478"/>
      <point x="321" y="478" type="curve" smooth="yes"/>
      <point x="293" y="478"/>
      <point x="263" y="471"/>
      <point x="238" y="459" type="curve"/>
      <point x="268" y="392" type="line"/>
      <point x="280" y="400"/>
      <point x="303" y="408"/>
      <point x="321" y="408" type="curve" smooth="yes"/>
      <point x="371" y="408"/>
      <point x="397" y="373"/>
      <point x="397" y="315" type="curve" smooth="yes"/>
      <point x="397" y="209"/>
      <point x="285" y="91"/>
      <point x="147" y="73" type="curve"/>
      <point x="144" y="75" type="line"/>
      <point x="144" y="611" type="line"/>
      <point x="536" y="611" type="line"/>
      <point x="536" y="679" type="line"/>
      <point x="-17" y="679" type="line"/>
      <point x="-17" y="611" type="line"/>
      <point x="68" y="611" type="line"/>
      <point x="68" y="3" type="line"/>
    </contour>
  </outline>
</glyph>
<glyph name="uniA812" format="2">
  <advance width="769"/>
  <unicode hex="A812"/>
  <outline>
    <contour>
      <point x="390" y="-8" type="curve" smooth="yes"/>
      <point x="579" y="-8"/>
      <point x="712" y="112"/>
      <point x="712" y="284" type="curve" smooth="yes"/>
      <point x="712" y="342"/>
      <point x="696" y="413"/>
      <point x="665" y="473" type="curve"/>
      <point x="571" y="465"/>
      <point x="490" y="431"/>
      <point x="427" y="360" type="curve"/>
      <point x="423" y="361" type="line"/>
      <point x="423" y="611" type="line"/>
      <point x="776" y="611" type="line"/>
      <point x="776" y="679" type="line"/>
      <point x="-7" y="679" type="line"/>
      <point x="-7" y="611" type="line"/>
      <point x="346" y="611" type="line"/>
      <point x="346" y="259" type="line"/>
      <point x="420" y="227" type="line"/>
      <point x="464" y="318"/>
      <point x="519" y="373"/>
      <point x="618" y="397" type="curve"/>
      <point x="631" y="360"/>
      <point x="637" y="321"/>
      <point x="637" y="289" type="curve" smooth="yes"/>
      <point x="637" y="149"/>
      <point x="532" y="68"/>
      <point x="392" y="68" type="curve" smooth="yes"/>
      <point x="242" y="68"/>
      <point x="132" y="144"/>
      <point x="132" y="280" type="curve" smooth="yes"/>
      <point x="132" y="363"/>
      <point x="170" y="408"/>
      <point x="207" y="447" type="curve"/>
      <point x="145" y="497" type="line"/>
      <point x="112" y="459"/>
      <point x="50" y="391"/>
      <point x="50" y="282" type="curve" smooth="yes"/>
      <point x="50" y="100"/>
      <point x="200" y="-8"/>
    </contour>
  </outline>
</glyph>
<glyph name="uniA813" format="2">
  <advance width="551"/>
  <unicode hex="A813"/>
  <outline>
    <contour>
      <point x="86" y="0" type="line"/>
      <point x="346" y="5"/>
      <point x="498" y="157"/>
      <point x="498" y="303" type="curve" smooth="yes"/>
      <point x="498" y="402"/>
      <point x="437" y="465"/>
      <point x="346" y="465" type="curve" smooth="yes"/>
      <point x="283" y="465"/>
      <point x="210" y="428"/>
      <point x="210" y="345" type="curve" smooth="yes"/>
      <point x="210" y="269"/>
      <point x="266" y="240"/>
      <point x="304" y="232" type="curve"/>
      <point x="330" y="301" type="line"/>
      <point x="317" y="304"/>
      <point x="285" y="311"/>
      <point x="285" y="348" type="curve" smooth="yes"/>
      <point x="285" y="381"/>
      <point x="311" y="397"/>
      <point x="342" y="397" type="curve" smooth="yes"/>
      <point x="392" y="397"/>
      <point x="420" y="365"/>
      <point x="420" y="302" type="curve" smooth="yes"/>
      <point x="420" y="196"/>
      <point x="304" y="86"/>
      <point x="152" y="78" type="curve"/>
      <point x="149" y="80" type="line"/>
      <point x="149" y="611" type="line"/>
      <point x="567" y="611" type="line"/>
      <point x="567" y="679" type="line"/>
      <point x="-17" y="679" type="line"/>
      <point x="-17" y="611" type="line"/>
      <point x="73" y="611" type="line"/>
      <point x="73" y="12" type="line"/>
    </contour>
  </outline>
</glyph>
<glyph name="uniA815" format="2">
  <advance width="925"/>
  <unicode hex="A815"/>
  <outline>
    <contour>
      <point x="772" y="0" type="line"/>
      <point x="847" y="0" type="line"/>
      <point x="847" y="611" type="line"/>
      <point x="932" y="611" type="line"/>
      <point x="932" y="679" type="line"/>
      <point x="-17" y="679" type="line"/>
      <point x="-17" y="611" type="line"/>
      <point x="726" y="611" type="line"/>
      <point x="627" y="523"/>
      <point x="564" y="435"/>
      <point x="493" y="330" type="curve"/>
      <point x="489" y="331" type="line"/>
      <point x="489" y="499" type="line"/>
      <point x="419" y="529" type="line"/>
      <point x="346" y="450"/>
      <point x="297" y="372"/>
      <point x="211" y="271" type="curve" smooth="yes"/>
      <point x="181" y="235"/>
      <point x="164" y="221"/>
      <point x="141" y="221" type="curve" smooth="yes"/>
      <point x="122" y="221"/>
      <point x="110" y="232"/>
      <point x="97" y="258" type="curve"/>
      <point x="31" y="212" type="line"/>
      <point x="61" y="158"/>
      <point x="96" y="142"/>
      <point x="136" y="142" type="curve" smooth="yes"/>
      <point x="195" y="142"/>
      <point x="236" y="178"/>
      <point x="274" y="226" type="curve" smooth="yes"/>
      <point x="330" y="296"/>
      <point x="374" y="358"/>
      <point x="414" y="411" type="curve"/>
      <point x="414" y="216" type="line"/>
      <point x="495" y="184" type="line"/>
      <point x="572" y="325"/>
      <point x="659" y="455"/>
      <point x="769" y="559" type="curve"/>
      <point x="772" y="558" type="line"/>
    </contour>
  </outline>
</glyph>
<glyph name="uniA816" format="2">
  <advance width="674"/>
  <unicode hex="A816"/>
  <outline>
    <contour>
      <point x="548" y="-164" type="curve" smooth="yes"/>
      <point x="588" y="-164"/>
      <point x="615" y="-155"/>
      <point x="646" y="-132" type="curve"/>
      <point x="609" y="-67" type="line"/>
      <point x="592" y="-78"/>
      <point x="570" y="-89"/>
      <point x="546" y="-89" type="curve" smooth="yes"/>
      <point x="508" y="-89"/>
      <point x="500" y="-60"/>
      <point x="500" y="-19" type="curve" smooth="yes"/>
      <point x="500" y="457" type="line"/>
      <point x="416" y="490" type="line"/>
      <point x="318" y="421"/>
      <point x="267" y="384"/>
      <point x="168" y="275" type="curve"/>
      <point x="164" y="276" type="line"/>
      <point x="164" y="611" type="line"/>
      <point x="687" y="611" type="line"/>
      <point x="687" y="679" type="line"/>
      <point x="-17" y="679" type="line"/>
      <point x="-17" y="611" type="line"/>
      <point x="87" y="611" type="line"/>
      <point x="87" y="176" type="line"/>
      <point x="167" y="143" type="line"/>
      <point x="253" y="272"/>
      <point x="338" y="348"/>
      <point x="423" y="406" type="curve"/>
      <point x="426" y="404" type="line"/>
      <point x="426" y="-22" type="line" smooth="yes"/>
      <point x="426" y="-87"/>
      <point x="446" y="-164"/>
    </contour>
  </outline>
</glyph>
<glyph name="uniA818" format="2">
  <advance width="630"/>
  <unicode hex="A818"/>
  <outline>
    <contour>
      <point x="466" y="0" type="line"/>
      <point x="541" y="0" type="line"/>
      <point x="541" y="611" type="line"/>
      <point x="637" y="611" type="line"/>
      <point x="637" y="679" type="line"/>
      <point x="-17" y="679" type="line"/>
      <point x="-17" y="611" type="line"/>
      <point x="306" y="611" type="line"/>
      <point x="174" y="543"/>
      <point x="44" y="401"/>
      <point x="44" y="249" type="curve" smooth="yes"/>
      <point x="44" y="143"/>
      <point x="120" y="83"/>
      <point x="199" y="83" type="curve" smooth="yes"/>
      <point x="295" y="83"/>
      <point x="349" y="154"/>
      <point x="349" y="230" type="curve" smooth="yes"/>
      <point x="349" y="306"/>
      <point x="313" y="375"/>
      <point x="190" y="426" type="curve"/>
      <point x="255" y="516"/>
      <point x="367" y="593"/>
      <point x="456" y="593" type="curve" smooth="yes"/>
      <point x="459" y="593"/>
      <point x="462" y="593"/>
      <point x="466" y="592" type="curve"/>
    </contour>
    <contour>
      <point x="200" y="153" type="curve" smooth="yes"/>
      <point x="157" y="153"/>
      <point x="122" y="193"/>
      <point x="122" y="245" type="curve" smooth="yes"/>
      <point x="122" y="286"/>
      <point x="134" y="324"/>
      <point x="156" y="364" type="curve"/>
      <point x="242" y="328"/>
      <point x="271" y="275"/>
      <point x="271" y="225" type="curve" smooth="yes"/>
      <point x="271" y="188"/>
      <point x="245" y="153"/>
    </contour>
  </outline>
</glyph>
<glyph name="uniA819" format="2">
  <advance width="750"/>
  <unicode hex="A819"/>
  <outline>
    <contour>
      <point x="608" y="0" type="line"/>
      <point x="684" y="0" type="line"/>
      <point x="684" y="611" type="line"/>
      <point x="769" y="611" type="line"/>
      <point x="769" y="679" type="line"/>
      <point x="-17" y="679" type="line"/>
      <point x="-17" y="611" type="line"/>
      <point x="68" y="611" type="line"/>
      <point x="68" y="91" type="line"/>
      <point x="147" y="59" type="line"/>
      <point x="283" y="268"/>
      <point x="462" y="427"/>
      <point x="605" y="518" type="curve"/>
      <point x="608" y="517" type="line"/>
    </contour>
    <contour>
      <point x="148" y="196" type="curve"/>
      <point x="144" y="197" type="line"/>
      <point x="144" y="611" type="line"/>
      <point x="610" y="611" type="line"/>
      <point x="450" y="508"/>
      <point x="268" y="364"/>
    </contour>
  </outline>
</glyph>
<glyph name="uniA81A" format="2">
  <advance width="908"/>
  <unicode hex="A81A"/>
  <outline>
    <contour>
      <point x="608" y="0" type="line"/>
      <point x="684" y="0" type="line"/>
      <point x="684" y="167" type="line"/>
      <point x="727" y="117"/>
      <point x="790" y="72"/>
      <point x="878" y="64" type="curve"/>
      <point x="889" y="135" type="line"/>
      <point x="812" y="143"/>
      <point x="742" y="182"/>
      <point x="715" y="214" type="curve"/>
      <point x="716" y="217" type="line"/>
      <point x="798" y="219"/>
      <point x="892" y="238"/>
      <point x="892" y="335" type="curve" smooth="yes"/>
      <point x="892" y="419"/>
      <point x="832" y="447"/>
      <point x="769" y="447" type="curve" smooth="yes"/>
      <point x="736" y="447"/>
      <point x="709" y="442"/>
      <point x="684" y="435" type="curve"/>
      <point x="684" y="611" type="line"/>
      <point x="920" y="611" type="line"/>
      <point x="920" y="679" type="line"/>
      <point x="-17" y="679" type="line"/>
      <point x="-17" y="611" type="line"/>
      <point x="68" y="611" type="line"/>
      <point x="68" y="95" type="line"/>
      <point x="147" y="63" type="line"/>
      <point x="274" y="268"/>
      <point x="443" y="417"/>
      <point x="605" y="518" type="curve"/>
      <point x="608" y="517" type="line"/>
    </contour>
    <contour>
      <point x="148" y="196" type="curve"/>
      <point x="144" y="197" type="line"/>
      <point x="144" y="611" type="line"/>
      <point x="610" y="611" type="line"/>
      <point x="450" y="508"/>
      <point x="268" y="364"/>
    </contour>
    <contour>
      <point x="684" y="270" type="curve"/>
      <point x="684" y="371" type="line"/>
      <point x="711" y="381"/>
      <point x="737" y="386"/>
      <point x="765" y="386" type="curve" smooth="yes"/>
      <point x="799" y="386"/>
      <point x="821" y="369"/>
      <point x="821" y="335" type="curve" smooth="yes"/>
      <point x="821" y="288"/>
      <point x="751" y="272"/>
    </contour>
  </outline>
</glyph>
<glyph name="uniA81B" format="2">
  <advance width="593"/>
  <unicode hex="A81B"/>
  <outline>
    <contour>
      <point x="438" y="0" type="line"/>
      <point x="514" y="0" type="line"/>
      <point x="514" y="611" type="line"/>
      <point x="610" y="611" type="line"/>
      <point x="610" y="679" type="line"/>
      <point x="-17" y="679" type="line"/>
      <point x="-17" y="611" type="line"/>
      <point x="438" y="611" type="line"/>
      <point x="438" y="474" type="line"/>
      <point x="396" y="500"/>
      <point x="345" y="519"/>
      <point x="281" y="519" type="curve" smooth="yes"/>
      <point x="142" y="519"/>
      <point x="59" y="448"/>
      <point x="59" y="322" type="curve" smooth="yes"/>
      <point x="59" y="192"/>
      <point x="141" y="122"/>
      <point x="278" y="122" type="curve" smooth="yes"/>
      <point x="343" y="122"/>
      <point x="395" y="145"/>
      <point x="438" y="176" type="curve"/>
    </contour>
    <contour>
      <point x="280" y="196" type="curve" smooth="yes"/>
      <point x="186" y="196"/>
      <point x="141" y="238"/>
      <point x="141" y="322" type="curve" smooth="yes"/>
      <point x="141" y="405"/>
      <point x="190" y="447"/>
      <point x="289" y="447" type="curve" smooth="yes"/>
      <point x="356" y="447"/>
      <point x="401" y="423"/>
      <point x="438" y="397" type="curve"/>
      <point x="438" y="260" type="line"/>
      <point x="397" y="222"/>
      <point x="344" y="196"/>
    </contour>
  </outline>
</glyph>
<glyph name="uniA821" format="2">
  <advance width="762"/>
  <unicode hex="A821"/>
  <outline>
    <contour>
      <point x="320" y="-31" type="curve"/>
      <point x="394" y="5" type="line"/>
      <point x="342" y="123"/>
      <point x="250" y="198"/>
      <point x="175" y="219" type="curve"/>
      <point x="176" y="223" type="line"/>
      <point x="252" y="228"/>
      <point x="319" y="264"/>
      <point x="352" y="316" type="curve"/>
      <point x="428" y="386"/>
      <point x="511" y="453"/>
      <point x="605" y="518" type="curve"/>
      <point x="608" y="517" type="line"/>
      <point x="608" y="0" type="line"/>
      <point x="684" y="0" type="line"/>
      <point x="684" y="611" type="line"/>
      <point x="769" y="611" type="line"/>
      <point x="769" y="679" type="line"/>
      <point x="-17" y="679" type="line"/>
      <point x="-17" y="611" type="line"/>
      <point x="610" y="611" type="line"/>
      <point x="519" y="544"/>
      <point x="437" y="482"/>
      <point x="371" y="426" type="curve"/>
      <point x="356" y="511"/>
      <point x="290" y="562"/>
      <point x="218" y="562" type="curve" smooth="yes"/>
      <point x="155" y="562"/>
      <point x="86" y="539"/>
      <point x="34" y="495" type="curve"/>
      <point x="80" y="434" type="line"/>
      <point x="133" y="481"/>
      <point x="178" y="493"/>
      <point x="216" y="493" type="curve" smooth="yes"/>
      <point x="265" y="493"/>
      <point x="299" y="454"/>
      <point x="299" y="393" type="curve" smooth="yes"/>
      <point x="299" y="312"/>
      <point x="165" y="279"/>
      <point x="65" y="270" type="curve"/>
      <point x="65" y="196" type="line"/>
      <point x="139" y="179"/>
      <point x="259" y="130"/>
    </contour>
  </outline>
</glyph>
<glyph name="uniA823" format="2">
  <advance width="281"/>
  <unicode hex="A823"/>
  <outline>
    <contour>
      <point x="121" y="0" type="line"/>
      <point x="197" y="0" type="line"/>
      <point x="197" y="611" type="line"/>
      <point x="291" y="611" type="line"/>
      <point x="291" y="679" type="line"/>
      <point x="-17" y="679" type="line"/>
      <point x="-17" y="611" type="line"/>
      <point x="121" y="611" type="line"/>
    </contour>
  </outline>
</glyph>
<glyph name="uniA824" format="2">
  <advance width="254"/>
  <unicode hex="A824"/>
  <outline>
    <contour>
      <point x="100" y="0" type="line"/>
      <point x="176" y="0" type="line"/>
      <point x="176" y="611" type="line"/>
      <point x="270" y="611" type="line"/>
      <point x="270" y="679" type="line"/>
      <point x="176" y="679" type="line"/>
      <point x="176" y="809" type="line" smooth="yes"/>
      <point x="176" y="878"/>
      <point x="150" y="958"/>
      <point x="49" y="958" type="curve" smooth="yes"/>
      <point x="-63" y="958"/>
      <point x="-131" y="877"/>
      <point x="-186" y="761" type="curve"/>
      <point x="-113" y="728" type="line"/>
      <point x="-71" y="816"/>
      <point x="-24" y="888"/>
      <point x="45" y="888" type="curve" smooth="yes"/>
      <point x="89" y="888"/>
      <point x="100" y="850"/>
      <point x="100" y="809" type="curve" smooth="yes"/>
      <point x="100" y="679" type="line"/>
      <point x="-17" y="679" type="line"/>
      <point x="-17" y="611" type="line"/>
      <point x="100" y="611" type="line"/>
    </contour>
  </outline>
</glyph>
<glyph name="uniA826" format="2">
  <unicode hex="A826"/>
  <outline>
    <contour>
      <point x="-169" y="719" type="curve"/>
      <point x="-104" y="736" type="line"/>
      <point x="-176" y="867"/>
      <point x="-279" y="911"/>
      <point x="-380" y="950" type="curve"/>
      <point x="-403" y="888" type="line"/>
      <point x="-298" y="853"/>
      <point x="-252" y="841"/>
    </contour>
  </outline>
</glyph>
<glyph name="uniA828" format="2">
  <advance width="381"/>
  <unicode hex="A828"/>
  <outline>
    <contour>
      <point x="194" y="264" type="curve" smooth="yes"/>
      <point x="257" y="264"/>
      <point x="311" y="308"/>
      <point x="311" y="371" type="curve" smooth="yes"/>
      <point x="311" y="434"/>
      <point x="257" y="478"/>
      <point x="194" y="478" type="curve" smooth="yes"/>
      <point x="133" y="478"/>
      <point x="80" y="434"/>
      <point x="80" y="371" type="curve" smooth="yes"/>
      <point x="80" y="308"/>
      <point x="133" y="264"/>
    </contour>
    <contour>
      <point x="193" y="324" type="curve" smooth="yes"/>
      <point x="169" y="324"/>
      <point x="145" y="345"/>
      <point x="145" y="370" type="curve" smooth="yes"/>
      <point x="145" y="396"/>
      <point x="169" y="416"/>
      <point x="193" y="416" type="curve" smooth="yes"/>
      <point x="220" y="416"/>
      <point x="240" y="396"/>
      <point x="240" y="370" type="curve" smooth="yes"/>
      <point x="240" y="345"/>
      <point x="220" y="324"/>
    </contour>
  </outline>
</glyph>
<glyph name="uniA829" format="2">
  <advance width="331"/>
  <unicode hex="A829"/>
  <outline>
    <contour>
      <point x="164" y="344" type="curve" smooth="yes"/>
      <point x="226" y="344"/>
      <point x="281" y="389"/>
      <point x="281" y="451" type="curve" smooth="yes"/>
      <point x="281" y="515"/>
      <point x="226" y="559"/>
      <point x="164" y="559" type="curve" smooth="yes"/>
      <point x="103" y="559"/>
      <point x="49" y="515"/>
      <point x="49" y="451" type="curve" smooth="yes"/>
      <point x="49" y="389"/>
      <point x="103" y="344"/>
    </contour>
    <contour>
      <point x="164" y="72" type="curve" smooth="yes"/>
      <point x="226" y="72"/>
      <point x="281" y="116"/>
      <point x="281" y="179" type="curve" smooth="yes"/>
      <point x="281" y="242"/>
      <point x="226" y="286"/>
      <point x="164" y="286" type="curve" smooth="yes"/>
      <point x="103" y="286"/>
      <point x="49" y="242"/>
      <point x="49" y="179" type="curve" smooth="yes"/>
      <point x="49" y="116"/>
      <point x="103" y="72"/>
    </contour>
    <contour>
      <point x="163" y="132" type="curve" smooth="yes"/>
      <point x="138" y="132"/>
      <point x="115" y="154"/>
      <point x="115" y="178" type="curve" smooth="yes"/>
      <point x="115" y="204"/>
      <point x="138" y="224"/>
      <point x="163" y="224" type="curve" smooth="yes"/>
      <point x="190" y="224"/>
      <point x="210" y="204"/>
      <point x="210" y="178" type="curve" smooth="yes"/>
      <point x="210" y="154"/>
      <point x="190" y="132"/>
    </contour>
    <contour>
      <point x="163" y="405" type="curve" smooth="yes"/>
      <point x="138" y="405"/>
      <point x="115" y="426"/>
      <point x="115" y="450" type="curve" smooth="yes"/>
      <point x="115" y="477"/>
      <point x="138" y="497"/>
      <point x="163" y="497" type="curve" smooth="yes"/>
      <point x="190" y="497"/>
      <point x="210" y="477"/>
      <point x="210" y="450" type="curve" smooth="yes"/>
      <point x="210" y="426"/>
      <point x="190" y="405"/>
    </contour>
  </outline>
</glyph>
<glyph name="uniA82B" format="2">
  <advance width="646"/>
  <unicode hex="A82B"/>
  <outline>
    <contour>
      <point x="466" y="351" type="curve" smooth="yes"/>
      <point x="528" y="351"/>
      <point x="583" y="396"/>
      <point x="583" y="459" type="curve" smooth="yes"/>
      <point x="583" y="522"/>
      <point x="528" y="566"/>
      <point x="466" y="566" type="curve" smooth="yes"/>
      <point x="405" y="566"/>
      <point x="351" y="522"/>
      <point x="351" y="459" type="curve" smooth="yes"/>
      <point x="351" y="396"/>
      <point x="405" y="351"/>
    </contour>
    <contour>
      <point x="184" y="84" type="curve" smooth="yes"/>
      <point x="246" y="84"/>
      <point x="301" y="128"/>
      <point x="301" y="191" type="curve" smooth="yes"/>
      <point x="301" y="255"/>
      <point x="246" y="298"/>
      <point x="184" y="298" type="curve" smooth="yes"/>
      <point x="123" y="298"/>
      <point x="70" y="255"/>
      <point x="70" y="191" type="curve" smooth="yes"/>
      <point x="70" y="128"/>
      <point x="123" y="84"/>
    </contour>
    <contour>
      <point x="183" y="144" type="curve" smooth="yes"/>
      <point x="159" y="144"/>
      <point x="135" y="166"/>
      <point x="135" y="190" type="curve" smooth="yes"/>
      <point x="135" y="216"/>
      <point x="159" y="236"/>
      <point x="183" y="236" type="curve" smooth="yes"/>
      <point x="210" y="236"/>
      <point x="230" y="216"/>
      <point x="230" y="190" type="curve" smooth="yes"/>
      <point x="230" y="166"/>
      <point x="210" y="144"/>
    </contour>
    <contour>
      <point x="184" y="351" type="curve" smooth="yes"/>
      <point x="246" y="351"/>
      <point x="301" y="396"/>
      <point x="301" y="459" type="curve" smooth="yes"/>
      <point x="301" y="522"/>
      <point x="246" y="566"/>
      <point x="184" y="566" type="curve" smooth="yes"/>
      <point x="123" y="566"/>
      <point x="70" y="522"/>
      <point x="70" y="459" type="curve" smooth="yes"/>
      <point x="70" y="396"/>
      <point x="123" y="351"/>
    </contour>
    <contour>
      <point x="183" y="412" type="curve" smooth="yes"/>
      <point x="159" y="412"/>
      <point x="135" y="433"/>
      <point x="135" y="458" type="curve" smooth="yes"/>
      <point x="135" y="484"/>
      <point x="159" y="504"/>
      <point x="183" y="504" type="curve" smooth="yes"/>
      <point x="210" y="504"/>
      <point x="230" y="484"/>
      <point x="230" y="458" type="curve" smooth="yes"/>
      <point x="230" y="433"/>
      <point x="210" y="412"/>
    </contour>
    <contour>
      <point x="466" y="84" type="curve" smooth="yes"/>
      <point x="528" y="84"/>
      <point x="583" y="128"/>
      <point x="583" y="191" type="curve" smooth="yes"/>
      <point x="583" y="255"/>
      <point x="528" y="298"/>
      <point x="466" y="298" type="curve" smooth="yes"/>
      <point x="405" y="298"/>
      <point x="351" y="255"/>
      <point x="351" y="191" type="curve" smooth="yes"/>
      <point x="351" y="128"/>
      <point x="405" y="84"/>
    </contour>
    <contour>
      <point x="465" y="144" type="curve" smooth="yes"/>
      <point x="440" y="144"/>
      <point x="417" y="166"/>
      <point x="417" y="190" type="curve" smooth="yes"/>
      <point x="417" y="216"/>
      <point x="440" y="236"/>
      <point x="465" y="236" type="curve" smooth="yes"/>
      <point x="492" y="236"/>
      <point x="512" y="216"/>
      <point x="512" y="190" type="curve" smooth="yes"/>
      <point x="512" y="166"/>
      <point x="492" y="144"/>
    </contour>
    <contour>
      <point x="465" y="412" type="curve" smooth="yes"/>
      <point x="440" y="412"/>
      <point x="417" y="433"/>
      <point x="417" y="458" type="curve" smooth="yes"/>
      <point x="417" y="484"/>
      <point x="440" y="504"/>
      <point x="465" y="504" type="curve" smooth="yes"/>
      <point x="492" y="504"/>
      <point x="512" y="484"/>
      <point x="512" y="458" type="curve" smooth="yes"/>
      <point x="512" y="433"/>
      <point x="492" y="412"/>
    </contour>
  </outline>
</glyph>
<glyph name="uniA807uniA807" format="2">
  <advance width="1200"/>
  <outline>
    <contour>
      <point x="711" y="-99" type="line"/>
      <point x="786" y="-99" type="line"/>
      <point x="786" y="252" type="line"/>
      <point x="866" y="311"/>
      <point x="946" y="361"/>
      <point x="1024" y="404" type="curve"/>
      <point x="1027" y="403" type="line"/>
      <point x="1027" y="-99" type="line"/>
      <point x="1103" y="-99" type="line"/>
      <point x="1103" y="492" type="line"/>
      <point x="1029" y="492" type="line"/>
      <point x="945" y="443"/>
      <point x="864" y="395"/>
      <point x="786" y="341" type="curve"/>
      <point x="786" y="611" type="line"/>
      <point x="1212" y="611" type="line"/>
      <point x="1212" y="679" type="line"/>
      <point x="-17" y="679" type="line"/>
      <point x="-17" y="611" type="line"/>
      <point x="87" y="611" type="line"/>
      <point x="87" y="95" type="line"/>
      <point x="159" y="62" type="line"/>
      <point x="248" y="165"/>
      <point x="325" y="245"/>
      <point x="395" y="308" type="curve"/>
      <point x="395" y="-24" type="line"/>
      <point x="465" y="-58" type="line"/>
      <point x="542" y="40"/>
      <point x="625" y="123"/>
      <point x="711" y="193" type="curve"/>
    </contour>
    <contour>
      <point x="168" y="189" type="curve"/>
      <point x="164" y="190" type="line"/>
      <point x="164" y="611" type="line"/>
      <point x="395" y="611" type="line"/>
      <point x="395" y="405" type="line"/>
      <point x="323" y="346"/>
      <point x="249" y="276"/>
    </contour>
    <contour>
      <point x="474" y="70" type="curve"/>
      <point x="470" y="71" type="line"/>
      <point x="470" y="373" type="line"/>
      <point x="551" y="438"/>
      <point x="627" y="483"/>
      <point x="708" y="523" type="curve"/>
      <point x="711" y="522" type="line"/>
      <point x="711" y="288" type="line"/>
      <point x="630" y="227"/>
      <point x="551" y="156"/>
    </contour>
    <contour>
      <point x="470" y="463" type="curve"/>
      <point x="470" y="611" type="line"/>
      <point x="713" y="611" type="line"/>
      <point x="627" y="566"/>
      <point x="548" y="520"/>
    </contour>
  </outline>
</glyph>
<glyph name="uniA80CuniA80D" format="2">
  <advance width="1062"/>
  <outline>
    <contour>
      <point x="582" y="-147" type="line"/>
      <point x="623" y="-27"/>
      <point x="695" y="50"/>
      <point x="749" y="91" type="curve"/>
      <point x="749" y="46" type="line" smooth="yes"/>
      <point x="749" y="-11"/>
      <point x="756" y="-82"/>
      <point x="855" y="-82" type="curve" smooth="yes"/>
      <point x="944" y="-82"/>
      <point x="1016" y="17"/>
      <point x="1016" y="80" type="curve" smooth="yes"/>
      <point x="1016" y="149"/>
      <point x="972" y="195"/>
      <point x="874" y="195" type="curve" smooth="yes"/>
      <point x="857" y="195"/>
      <point x="840" y="192"/>
      <point x="823" y="188" type="curve"/>
      <point x="823" y="457" type="line"/>
      <point x="739" y="490" type="line"/>
      <point x="641" y="421"/>
      <point x="590" y="374"/>
      <point x="491" y="265" type="curve"/>
      <point x="487" y="266" type="line"/>
      <point x="487" y="611" type="line"/>
      <point x="1071" y="611" type="line"/>
      <point x="1071" y="679" type="line"/>
      <point x="-17" y="679" type="line"/>
      <point x="-17" y="611" type="line"/>
      <point x="411" y="611" type="line"/>
      <point x="411" y="553" type="line"/>
      <point x="234" y="553"/>
      <point x="134" y="512"/>
      <point x="35" y="413" type="curve"/>
      <point x="127" y="282"/>
      <point x="262" y="245"/>
      <point x="411" y="240" type="curve"/>
      <point x="411" y="166" type="line"/>
      <point x="495" y="141" type="line"/>
      <point x="595" y="297"/>
      <point x="704" y="378"/>
      <point x="746" y="405" type="curve"/>
      <point x="749" y="404" type="line"/>
      <point x="749" y="166" type="line"/>
      <point x="664" y="119"/>
      <point x="563" y="23"/>
      <point x="514" y="-122" type="curve"/>
    </contour>
    <contour>
      <point x="411" y="314" type="line"/>
      <point x="293" y="314"/>
      <point x="200" y="330"/>
      <point x="132" y="400" type="curve"/>
      <point x="183" y="444"/>
      <point x="250" y="485"/>
      <point x="376" y="485" type="curve" smooth="yes"/>
      <point x="387" y="485"/>
      <point x="399" y="485"/>
      <point x="411" y="484" type="curve"/>
    </contour>
    <contour>
      <point x="856" y="-12" type="curve" smooth="yes"/>
      <point x="827" y="-12"/>
      <point x="823" y="7"/>
      <point x="823" y="44" type="curve" smooth="yes"/>
      <point x="823" y="126" type="line"/>
      <point x="840" y="131"/>
      <point x="856" y="133"/>
      <point x="872" y="133" type="curve" smooth="yes"/>
      <point x="923" y="133"/>
      <point x="940" y="106"/>
      <point x="940" y="79" type="curve" smooth="yes"/>
      <point x="940" y="35"/>
      <point x="903" y="-12"/>
    </contour>
  </outline>
</glyph>
<glyph name="uniA80EuniA80E" format="2">
  <advance width="775"/>
  <outline>
    <contour>
      <point x="610" y="-99" type="line"/>
      <point x="686" y="-99" type="line"/>
      <point x="686" y="611" type="line"/>
      <point x="781" y="611" type="line"/>
      <point x="781" y="679" type="line"/>
      <point x="-13" y="679" type="line"/>
      <point x="-13" y="611" type="line"/>
      <point x="141" y="611" type="line"/>
      <point x="87" y="560"/>
      <point x="59" y="500"/>
      <point x="59" y="434" type="curve" smooth="yes"/>
      <point x="59" y="370"/>
      <point x="83" y="313"/>
      <point x="128" y="275" type="curve"/>
      <point x="83" y="227"/>
      <point x="59" y="171"/>
      <point x="59" y="111" type="curve" smooth="yes"/>
      <point x="59" y="-5"/>
      <point x="138" y="-98"/>
      <point x="282" y="-98" type="curve" smooth="yes"/>
      <point x="387" y="-98"/>
      <point x="486" y="-57"/>
      <point x="486" y="44" type="curve" smooth="yes"/>
      <point x="486" y="89"/>
      <point x="467" y="116"/>
      <point x="438" y="132" type="curve"/>
      <point x="439" y="135" type="line"/>
      <point x="610" y="154" type="line"/>
    </contour>
    <contour>
      <point x="284" y="-31" type="curve" smooth="yes"/>
      <point x="182" y="-31"/>
      <point x="138" y="30"/>
      <point x="138" y="112" type="curve" smooth="yes"/>
      <point x="138" y="162"/>
      <point x="154" y="205"/>
      <point x="187" y="241" type="curve"/>
      <point x="214" y="231"/>
      <point x="246" y="225"/>
      <point x="282" y="225" type="curve" smooth="yes"/>
      <point x="387" y="225"/>
      <point x="486" y="267"/>
      <point x="486" y="368" type="curve" smooth="yes"/>
      <point x="486" y="412"/>
      <point x="467" y="439"/>
      <point x="438" y="456" type="curve"/>
      <point x="439" y="459" type="line"/>
      <point x="610" y="478" type="line"/>
      <point x="610" y="220" type="line"/>
      <point x="318" y="189" type="line"/>
      <point x="314" y="123" type="line"/>
      <point x="361" y="122"/>
      <point x="410" y="116"/>
      <point x="410" y="50" type="curve" smooth="yes"/>
      <point x="410" y="-9"/>
      <point x="352" y="-31"/>
    </contour>
    <contour>
      <point x="284" y="292" type="curve" smooth="yes"/>
      <point x="182" y="292"/>
      <point x="138" y="353"/>
      <point x="138" y="435" type="curve" smooth="yes"/>
      <point x="138" y="509"/>
      <point x="175" y="569"/>
      <point x="245" y="611" type="curve"/>
      <point x="610" y="611" type="line"/>
      <point x="610" y="543" type="line"/>
      <point x="318" y="512" type="line"/>
      <point x="314" y="446" type="line"/>
      <point x="361" y="445"/>
      <point x="410" y="439"/>
      <point x="410" y="374" type="curve" smooth="yes"/>
      <point x="410" y="314"/>
      <point x="352" y="292"/>
    </contour>
  </outline>
</glyph>
<glyph name="uniA818uniA816" format="2">
  <advance width="1050"/>
  <outline>
    <contour>
      <point x="915" y="-164" type="curve" smooth="yes"/>
      <point x="954" y="-164"/>
      <point x="982" y="-155"/>
      <point x="1013" y="-132" type="curve"/>
      <point x="976" y="-67" type="line"/>
      <point x="958" y="-78"/>
      <point x="936" y="-89"/>
      <point x="913" y="-89" type="curve" smooth="yes"/>
      <point x="875" y="-89"/>
      <point x="866" y="-60"/>
      <point x="866" y="-19" type="curve" smooth="yes"/>
      <point x="866" y="457" type="line"/>
      <point x="783" y="490" type="line"/>
      <point x="685" y="421"/>
      <point x="633" y="384"/>
      <point x="534" y="275" type="curve"/>
      <point x="530" y="276" type="line"/>
      <point x="530" y="611" type="line"/>
      <point x="1063" y="611" type="line"/>
      <point x="1063" y="679" type="line"/>
      <point x="-17" y="679" type="line"/>
      <point x="-17" y="611" type="line"/>
      <point x="289" y="611" type="line"/>
      <point x="159" y="538"/>
      <point x="53" y="388"/>
      <point x="53" y="260" type="curve" smooth="yes"/>
      <point x="53" y="154"/>
      <point x="129" y="93"/>
      <point x="208" y="93" type="curve" smooth="yes"/>
      <point x="304" y="93"/>
      <point x="358" y="164"/>
      <point x="358" y="240" type="curve" smooth="yes"/>
      <point x="358" y="316"/>
      <point x="322" y="385"/>
      <point x="199" y="436" type="curve"/>
      <point x="264" y="526"/>
      <point x="348" y="593"/>
      <point x="437" y="593" type="curve" smooth="yes"/>
      <point x="440" y="593"/>
      <point x="449" y="593"/>
      <point x="453" y="592" type="curve"/>
      <point x="453" y="176" type="line"/>
      <point x="533" y="143" type="line"/>
      <point x="619" y="272"/>
      <point x="705" y="348"/>
      <point x="790" y="406" type="curve"/>
      <point x="793" y="404" type="line"/>
      <point x="793" y="-22" type="line" smooth="yes"/>
      <point x="793" y="-87"/>
      <point x="813" y="-164"/>
    </contour>
    <contour>
      <point x="209" y="163" type="curve" smooth="yes"/>
      <point x="166" y="163"/>
      <point x="131" y="203"/>
      <point x="131" y="256" type="curve" smooth="yes"/>
      <point x="131" y="296"/>
      <point x="141" y="335"/>
      <point x="163" y="375" type="curve"/>
      <point x="249" y="339"/>
      <point x="280" y="285"/>
      <point x="280" y="235" type="curve" smooth="yes"/>
      <point x="280" y="198"/>
      <point x="254" y="163"/>
    </contour>
  </outline>
</glyph>
<glyph name="uniA81DuniA81D" format="2">
  <advance width="788"/>
  <outline>
    <contour>
      <point x="634" y="-99" type="line"/>
      <point x="710" y="-99" type="line"/>
      <point x="710" y="611" type="line"/>
      <point x="796" y="611" type="line"/>
      <point x="796" y="679" type="line"/>
      <point x="-5" y="679" type="line"/>
      <point x="-5" y="611" type="line"/>
      <point x="20" y="611" type="line"/>
      <point x="82" y="558"/>
      <point x="126" y="515"/>
      <point x="165" y="480" type="curve"/>
      <point x="99" y="421"/>
      <point x="72" y="371"/>
      <point x="72" y="309" type="curve" smooth="yes"/>
      <point x="72" y="242"/>
      <point x="121" y="182"/>
      <point x="209" y="182" type="curve" smooth="yes"/>
      <point x="265" y="182"/>
      <point x="307" y="204"/>
      <point x="329" y="240" type="curve"/>
      <point x="346" y="227"/>
      <point x="361" y="214"/>
      <point x="375" y="203" type="curve"/>
      <point x="313" y="146"/>
      <point x="286" y="97"/>
      <point x="286" y="36" type="curve" smooth="yes"/>
      <point x="286" y="-30"/>
      <point x="335" y="-91"/>
      <point x="423" y="-91" type="curve" smooth="yes"/>
      <point x="508" y="-91"/>
      <point x="562" y="-38"/>
      <point x="562" y="34" type="curve" smooth="yes"/>
      <point x="562" y="98"/>
      <point x="539" y="136"/>
      <point x="468" y="203" type="curve"/>
      <point x="510" y="236"/>
      <point x="565" y="274"/>
      <point x="634" y="318" type="curve"/>
    </contour>
    <contour>
      <point x="423" y="-28" type="curve" smooth="yes"/>
      <point x="377" y="-28"/>
      <point x="357" y="8"/>
      <point x="357" y="43" type="curve" smooth="yes"/>
      <point x="357" y="82"/>
      <point x="377" y="119"/>
      <point x="421" y="162" type="curve"/>
      <point x="474" y="113"/>
      <point x="493" y="80"/>
      <point x="493" y="41" type="curve" smooth="yes"/>
      <point x="493" y="-4"/>
      <point x="460" y="-28"/>
    </contour>
    <contour>
      <point x="209" y="244" type="curve" smooth="yes"/>
      <point x="162" y="244"/>
      <point x="143" y="281"/>
      <point x="143" y="316" type="curve" smooth="yes"/>
      <point x="143" y="355"/>
      <point x="163" y="393"/>
      <point x="209" y="437" type="curve"/>
      <point x="257" y="388"/>
      <point x="279" y="352"/>
      <point x="279" y="314" type="curve" smooth="yes"/>
      <point x="279" y="269"/>
      <point x="246" y="244"/>
    </contour>
    <contour>
      <point x="214" y="521" type="curve"/>
      <point x="187" y="547"/>
      <point x="156" y="576"/>
      <point x="118" y="611" type="curve"/>
      <point x="338" y="611" type="line"/>
      <point x="289" y="577"/>
      <point x="249" y="548"/>
    </contour>
    <contour>
      <point x="423" y="244" type="curve"/>
      <point x="401" y="263"/>
      <point x="376" y="284"/>
      <point x="348" y="309" type="curve"/>
      <point x="347" y="370"/>
      <point x="323" y="412"/>
      <point x="258" y="479" type="curve"/>
      <point x="306" y="517"/>
      <point x="369" y="560"/>
      <point x="451" y="611" type="curve"/>
      <point x="634" y="611" type="line"/>
      <point x="634" y="393" type="line"/>
      <point x="545" y="333"/>
      <point x="475" y="285"/>
    </contour>
  </outline>
</glyph>
<glyph name="uniA821uniA80C" format="2">
  <advance width="851"/>
  <outline>
    <contour>
      <point x="320" y="-31" type="curve"/>
      <point x="394" y="5" type="line"/>
      <point x="342" y="123"/>
      <point x="250" y="198"/>
      <point x="175" y="219" type="curve"/>
      <point x="176" y="223" type="line"/>
      <point x="248" y="228"/>
      <point x="313" y="261"/>
      <point x="347" y="309" type="curve"/>
      <point x="443" y="386"/>
      <point x="595" y="470"/>
      <point x="696" y="518" type="curve"/>
      <point x="699" y="517" type="line"/>
      <point x="699" y="361" type="line"/>
      <point x="535" y="361"/>
      <point x="454" y="323"/>
      <point x="364" y="230" type="curve"/>
      <point x="447" y="111"/>
      <point x="562" y="77"/>
      <point x="699" y="72" type="curve"/>
      <point x="699" y="0" type="line"/>
      <point x="775" y="0" type="line"/>
      <point x="775" y="611" type="line"/>
      <point x="860" y="611" type="line"/>
      <point x="860" y="679" type="line"/>
      <point x="-17" y="679" type="line"/>
      <point x="-17" y="611" type="line"/>
      <point x="701" y="611" type="line"/>
      <point x="590" y="550"/>
      <point x="462" y="479"/>
      <point x="372" y="417" type="curve"/>
      <point x="361" y="507"/>
      <point x="292" y="562"/>
      <point x="218" y="562" type="curve" smooth="yes"/>
      <point x="155" y="562"/>
      <point x="86" y="539"/>
      <point x="34" y="495" type="curve"/>
      <point x="80" y="434" type="line"/>
      <point x="133" y="481"/>
      <point x="178" y="493"/>
      <point x="216" y="493" type="curve" smooth="yes"/>
      <point x="265" y="493"/>
      <point x="299" y="454"/>
      <point x="299" y="393" type="curve" smooth="yes"/>
      <point x="299" y="312"/>
      <point x="165" y="279"/>
      <point x="65" y="270" type="curve"/>
      <point x="65" y="196" type="line"/>
      <point x="139" y="179"/>
      <point x="259" y="130"/>
    </contour>
    <contour>
      <point x="664" y="144" type="curve" smooth="yes"/>
      <point x="573" y="144"/>
      <point x="509" y="163"/>
      <point x="460" y="221" type="curve"/>
      <point x="508" y="274"/>
      <point x="573" y="291"/>
      <point x="652" y="291" type="curve" smooth="yes"/>
      <point x="668" y="291"/>
      <point x="683" y="291"/>
      <point x="699" y="289" type="curve"/>
      <point x="699" y="145" type="line"/>
      <point x="687" y="144"/>
      <point x="675" y="144"/>
    </contour>
  </outline>
</glyph>
<glyph name="uniA821uniA80D" format="2">
  <advance width="1165"/>
  <outline>
    <contour>
      <point x="683" y="-147" type="line"/>
      <point x="724" y="-27"/>
      <point x="796" y="50"/>
      <point x="850" y="91" type="curve"/>
      <point x="850" y="46" type="line" smooth="yes"/>
      <point x="850" y="-11"/>
      <point x="857" y="-82"/>
      <point x="956" y="-82" type="curve" smooth="yes"/>
      <point x="1045" y="-82"/>
      <point x="1117" y="17"/>
      <point x="1117" y="80" type="curve" smooth="yes"/>
      <point x="1117" y="149"/>
      <point x="1073" y="195"/>
      <point x="975" y="195" type="curve" smooth="yes"/>
      <point x="958" y="195"/>
      <point x="941" y="192"/>
      <point x="924" y="188" type="curve"/>
      <point x="924" y="457" type="line"/>
      <point x="840" y="490" type="line"/>
      <point x="742" y="421"/>
      <point x="691" y="384"/>
      <point x="592" y="275" type="curve"/>
      <point x="588" y="276" type="line"/>
      <point x="588" y="611" type="line"/>
      <point x="1172" y="611" type="line"/>
      <point x="1172" y="679" type="line"/>
      <point x="-8" y="679" type="line"/>
      <point x="-8" y="611" type="line"/>
      <point x="511" y="611" type="line"/>
      <point x="511" y="537" type="line"/>
      <point x="459" y="498"/>
      <point x="411" y="461"/>
      <point x="370" y="426" type="curve"/>
      <point x="355" y="511"/>
      <point x="290" y="562"/>
      <point x="218" y="562" type="curve" smooth="yes"/>
      <point x="155" y="562"/>
      <point x="86" y="539"/>
      <point x="34" y="495" type="curve"/>
      <point x="80" y="434" type="line"/>
      <point x="133" y="481"/>
      <point x="178" y="493"/>
      <point x="216" y="493" type="curve" smooth="yes"/>
      <point x="265" y="493"/>
      <point x="299" y="454"/>
      <point x="299" y="393" type="curve" smooth="yes"/>
      <point x="299" y="312"/>
      <point x="165" y="279"/>
      <point x="65" y="270" type="curve"/>
      <point x="65" y="196" type="line"/>
      <point x="139" y="179"/>
      <point x="259" y="130"/>
      <point x="320" y="-31" type="curve"/>
      <point x="394" y="5" type="line"/>
      <point x="342" y="123"/>
      <point x="250" y="198"/>
      <point x="175" y="219" type="curve"/>
      <point x="176" y="223" type="line"/>
      <point x="252" y="228"/>
      <point x="318" y="264"/>
      <point x="351" y="316" type="curve"/>
      <point x="401" y="362"/>
      <point x="454" y="407"/>
      <point x="511" y="450" type="curve"/>
      <point x="511" y="176" type="line"/>
      <point x="591" y="143" type="line"/>
      <point x="691" y="304"/>
      <point x="805" y="378"/>
      <point x="847" y="405" type="curve"/>
      <point x="850" y="404" type="line"/>
      <point x="850" y="166" type="line"/>
      <point x="765" y="119"/>
      <point x="664" y="23"/>
      <point x="615" y="-122" type="curve"/>
    </contour>
    <contour>
      <point x="957" y="-12" type="curve" smooth="yes"/>
      <point x="928" y="-12"/>
      <point x="924" y="7"/>
      <point x="924" y="44" type="curve" smooth="yes"/>
      <point x="924" y="126" type="line"/>
      <point x="941" y="131"/>
      <point x="957" y="133"/>
      <point x="973" y="133" type="curve" smooth="yes"/>
      <point x="1024" y="133"/>
      <point x="1041" y="106"/>
      <point x="1041" y="79" type="curve" smooth="yes"/>
      <point x="1041" y="35"/>
      <point x="1004" y="-12"/>
    </contour>
  </outline>
</glyph>
<glyph name="uniA821uniA814" format="2">
  <advance width="851"/>
  <outline>
    <contour>
      <point x="486" y="-59" type="line"/>
      <point x="530" y="-9"/>
      <point x="560" y="57"/>
      <point x="560" y="109" type="curve" smooth="yes"/>
      <point x="560" y="145"/>
      <point x="550" y="176"/>
      <point x="524" y="211" type="curve"/>
      <point x="526" y="214" type="line"/>
      <point x="559" y="204"/>
      <point x="592" y="199"/>
      <point x="623" y="199" type="curve" smooth="yes"/>
      <point x="652" y="199"/>
      <point x="676" y="203"/>
      <point x="699" y="211" type="curve"/>
      <point x="699" y="0" type="line"/>
      <point x="775" y="0" type="line"/>
      <point x="775" y="611" type="line"/>
      <point x="860" y="611" type="line"/>
      <point x="860" y="679" type="line"/>
      <point x="-17" y="679" type="line"/>
      <point x="-17" y="611" type="line"/>
      <point x="701" y="611" type="line"/>
      <point x="590" y="550"/>
      <point x="462" y="479"/>
      <point x="372" y="417" type="curve"/>
      <point x="361" y="507"/>
      <point x="292" y="562"/>
      <point x="218" y="562" type="curve" smooth="yes"/>
      <point x="155" y="562"/>
      <point x="86" y="539"/>
      <point x="34" y="495" type="curve"/>
      <point x="80" y="434" type="line"/>
      <point x="133" y="481"/>
      <point x="178" y="493"/>
      <point x="216" y="493" type="curve" smooth="yes"/>
      <point x="265" y="493"/>
      <point x="299" y="454"/>
      <point x="299" y="393" type="curve" smooth="yes"/>
      <point x="299" y="312"/>
      <point x="165" y="279"/>
      <point x="65" y="270" type="curve"/>
      <point x="65" y="196" type="line"/>
      <point x="139" y="179"/>
      <point x="248" y="130"/>
      <point x="310" y="-31" type="curve"/>
      <point x="384" y="5" type="line"/>
      <point x="332" y="123"/>
      <point x="250" y="198"/>
      <point x="175" y="219" type="curve"/>
      <point x="176" y="223" type="line"/>
      <point x="248" y="228"/>
      <point x="313" y="261"/>
      <point x="347" y="309" type="curve"/>
      <point x="443" y="386"/>
      <point x="595" y="470"/>
      <point x="696" y="518" type="curve"/>
      <point x="699" y="517" type="line"/>
      <point x="699" y="286" type="line"/>
      <point x="667" y="273"/>
      <point x="639" y="266"/>
      <point x="602" y="266" type="curve" smooth="yes"/>
      <point x="555" y="266"/>
      <point x="512" y="273"/>
      <point x="463" y="298" type="curve"/>
      <point x="424" y="235" type="line"/>
      <point x="471" y="202"/>
      <point x="486" y="164"/>
      <point x="486" y="123" type="curve" smooth="yes"/>
      <point x="486" y="83"/>
      <point x="462" y="32"/>
      <point x="423" y="-10" type="curve"/>
    </contour>
  </outline>
</glyph>
<glyph name="uniA821uniA81B" format="2">
  <advance width="851"/>
  <outline>
    <contour>
      <point x="320" y="-31" type="curve"/>
      <point x="394" y="5" type="line"/>
      <point x="342" y="123"/>
      <point x="250" y="198"/>
      <point x="175" y="219" type="curve"/>
      <point x="176" y="223" type="line"/>
      <point x="248" y="228"/>
      <point x="313" y="261"/>
      <point x="347" y="309" type="curve"/>
      <point x="443" y="386"/>
      <point x="595" y="470"/>
      <point x="696" y="518" type="curve"/>
      <point x="699" y="517" type="line"/>
      <point x="699" y="312" type="line"/>
      <point x="656" y="332"/>
      <point x="616" y="346"/>
      <point x="569" y="346" type="curve" smooth="yes"/>
      <point x="484" y="346"/>
      <point x="389" y="310"/>
      <point x="389" y="196" type="curve" smooth="yes"/>
      <point x="389" y="75"/>
      <point x="487" y="35"/>
      <point x="573" y="35" type="curve" smooth="yes"/>
      <point x="626" y="35"/>
      <point x="662" y="51"/>
      <point x="699" y="74" type="curve"/>
      <point x="699" y="0" type="line"/>
      <point x="775" y="0" type="line"/>
      <point x="775" y="611" type="line"/>
      <point x="860" y="611" type="line"/>
      <point x="860" y="679" type="line"/>
      <point x="-17" y="679" type="line"/>
      <point x="-17" y="611" type="line"/>
      <point x="701" y="611" type="line"/>
      <point x="590" y="550"/>
      <point x="462" y="479"/>
      <point x="372" y="417" type="curve"/>
      <point x="361" y="507"/>
      <point x="292" y="562"/>
      <point x="218" y="562" type="curve" smooth="yes"/>
      <point x="155" y="562"/>
      <point x="86" y="539"/>
      <point x="34" y="495" type="curve"/>
      <point x="80" y="434" type="line"/>
      <point x="133" y="481"/>
      <point x="178" y="493"/>
      <point x="216" y="493" type="curve" smooth="yes"/>
      <point x="265" y="493"/>
      <point x="299" y="454"/>
      <point x="299" y="393" type="curve" smooth="yes"/>
      <point x="299" y="312"/>
      <point x="165" y="279"/>
      <point x="65" y="270" type="curve"/>
      <point x="65" y="196" type="line"/>
      <point x="139" y="179"/>
      <point x="259" y="130"/>
    </contour>
    <contour>
      <point x="576" y="102" type="curve" smooth="yes"/>
      <point x="525" y="102"/>
      <point x="466" y="118"/>
      <point x="466" y="196" type="curve" smooth="yes"/>
      <point x="466" y="266"/>
      <point x="523" y="282"/>
      <point x="577" y="282" type="curve" smooth="yes"/>
      <point x="626" y="282"/>
      <point x="663" y="269"/>
      <point x="699" y="247" type="curve"/>
      <point x="699" y="144" type="line"/>
      <point x="666" y="118"/>
      <point x="626" y="102"/>
    </contour>
  </outline>
</glyph>
